<svg xmlns="http://www.w3.org/2000/svg" width="200" height="200" viewBox="0 0 200 200">
  <metadata><?xpacket begin="﻿" id="W5M0MpCehiHzreSzNTczkc9d"?>
<x:xmpmeta xmlns:x="adobe:ns:meta/" x:xmptk="Adobe XMP Core 5.6-c138 79.159824, 2016/09/14-01:09:01        ">
   <rdf:RDF xmlns:rdf="http://www.w3.org/1999/02/22-rdf-syntax-ns#">
      <rdf:Description rdf:about=""/>
   </rdf:RDF>
</x:xmpmeta>
                                                                                                    
                                                                                                    
                                                                                                    
                                                                                                    
                                                                                                    
                                                                                                    
                                                                                                    
                                                                                                    
                                                                                                    
                                                                                                    
                                                                                                    
                                                                                                    
                                                                                                    
                                                                                                    
                                                                                                    
                                                                                                    
                                                                                                    
                                                                                                    
                                                                                                    
                                                                                                    
                           
<?xpacket end="w"?></metadata>
<defs>
    <style>
      .cls-1 {
        fill: #a5a7ad;
        fill-rule: evenodd;
        opacity: 0.68;
      }
    </style>
  </defs>
  <g id="basket-icon">
    <path id="basket-icon-2" data-name="basket-icon" class="cls-1" d="M516.207,329.726H378.832a9.785,9.785,0,1,0,0,19.57h1.15L388.8,399.9a9.848,9.848,0,0,0,9.659,8.1h98.125a9.85,9.85,0,0,0,9.66-8.1l8.815-50.608h1.15A9.785,9.785,0,1,0,516.207,329.726ZM406.2,390.883h-0.383a4.975,4.975,0,0,1-4.906-4.51l-2.454-31.8a4.921,4.921,0,0,1,9.813-.764l2.453,31.8A4.944,4.944,0,0,1,406.2,390.883Zm31.507-4.892a4.906,4.906,0,0,1-9.812,0v-31.8a4.906,4.906,0,0,1,9.812,0v31.8Zm29.438,0a4.907,4.907,0,0,1-9.813,0v-31.8a4.907,4.907,0,0,1,9.813,0v31.8Zm26.984,0.382a4.976,4.976,0,0,1-4.906,4.51H488.84a4.944,4.944,0,0,1-4.523-5.274l2.453-31.8a4.921,4.921,0,0,1,9.812.764ZM405.51,293.337a9.822,9.822,0,0,1,9.583-7.644h12.8a4.934,4.934,0,0,0,4.906,4.892h29.438a4.934,4.934,0,0,0,4.906-4.892h12.8a9.823,9.823,0,0,1,9.583,7.644l7.129,31.5h10.119l-7.742-33.713a19.446,19.446,0,0,0-19.089-15.213h-12.8a4.934,4.934,0,0,0-4.906-4.892H432.8a4.934,4.934,0,0,0-4.906,4.892h-12.8A19.445,19.445,0,0,0,396,291.12l-7.742,33.713h10.119Z" transform="translate(-348 -239)"/>
  </g>
</svg>
