<svg xmlns="http://www.w3.org/2000/svg" width="200" height="200" viewBox="0 0 200 200">
  <metadata><?xpacket begin="﻿" id="W5M0MpCehiHzreSzNTczkc9d"?>
<x:xmpmeta xmlns:x="adobe:ns:meta/" x:xmptk="Adobe XMP Core 5.6-c138 79.159824, 2016/09/14-01:09:01        ">
   <rdf:RDF xmlns:rdf="http://www.w3.org/1999/02/22-rdf-syntax-ns#">
      <rdf:Description rdf:about=""/>
   </rdf:RDF>
</x:xmpmeta>
                                                                                                    
                                                                                                    
                                                                                                    
                                                                                                    
                                                                                                    
                                                                                                    
                                                                                                    
                                                                                                    
                                                                                                    
                                                                                                    
                                                                                                    
                                                                                                    
                                                                                                    
                                                                                                    
                                                                                                    
                                                                                                    
                                                                                                    
                                                                                                    
                                                                                                    
                                                                                                    
                           
<?xpacket end="w"?></metadata>
<defs>
    <style>
      .cls-1 {
        fill: #a5a7ad;
        fill-rule: evenodd;
        opacity: 0.68;
      }
    </style>
  </defs>
  <g id="voucher-icon">
    <path class="cls-1" d="M739.714,317H722.143v-8.8h17.571V317Zm26.357,8.8H722.143v8.8h43.928v-8.8ZM810,321.576V396.2a8.819,8.819,0,0,1-8.786,8.8H695.786A8.819,8.819,0,0,1,687,396.2V321.576a8.642,8.642,0,0,1,3.69-7.128l13.881-9.944v-5.1a8.819,8.819,0,0,1,8.786-8.8H723.9L748.5,273l24.6,17.6h10.543a8.819,8.819,0,0,1,8.786,8.8v5.1l13.881,9.944a8.536,8.536,0,0,1,3.69,7.128h0ZM713.357,339L748.5,361l35.143-22V299.4H713.357V339Zm-17.571,52.8,39.535-26.4L695.786,339v52.8Zm96.643,4.4L748.5,369.8l-43.929,26.4h87.858Zm8.785-57.2-39.535,26.4,39.535,26.4V339Z" transform="translate(-648 -239)"/>
  </g>
</svg>
