<svg version="1.1" xmlns="http://www.w3.org/2000/svg" width="1792" height="1792" viewBox="0 0 1792 1792">
<path fill="rgba(165,167,173,0.68)" d="M384 320h-128v-64h128v64zM576 384h-320v64h320v-64zM896 353.28v542.72c0 35.2-28.8 64-64 64h-768c-35.2 0-64-28.8-64-64v-542.72c0-21.12 10.24-40.32 26.88-51.84l101.12-72.32v-37.12c0-35.2 28.8-64 64-64h76.8l179.2-128 179.2 128h76.8c35.2 0 64 28.8 64 64v37.12l101.12 72.32c17.28 12.16 26.88 30.72 26.88 51.84v0zM192 480l256 160 256-160v-288h-512v288zM64 864l288-192-288-192v384zM768 896l-320-192-320 192h640zM832 480l-288 192 288 192v-384z"></path>
</svg>
